<svg xmlns="http://www.w3.org/2000/svg" viewBox="0 0 45 45">
  <g fill="none" fill-rule="evenodd" stroke="#000" stroke-linecap="round" stroke-linejoin="round" stroke-width="1.5">
    <g fill="#000" stroke-linecap="butt">
      <path d="M9 37c3-1 10 0 14-2 3 2 10 1 13 2 0 0 2 0 3 2h-3c-3-1-10 1-13-1-4 2-11 0-14 1H6c1-2 3-2 3-2zm6-4c3 2 13 2 15 0v-2c0-3-2-4-2-4 5-2 6-12-5-16-11 4-11 14-5 16 0 0-3 1-3 4v2z"/>
      <path d="M25 9a3 3 0 1 1-5 0 3 3 0 1 1 5 0z"/>
    </g>
    <path stroke="#fff" stroke-linejoin="miter" d="M18 27h10m-13 4h15m-7-15v5m-3-2h5"/>
  </g>
</svg>