<svg xmlns="http://www.w3.org/2000/svg" viewBox="0 0 45 45">
  <g fill="none" fill-rule="evenodd" stroke="#000" stroke-linecap="round" stroke-linejoin="round" stroke-width="1.5">
    <path stroke-linejoin="miter" d="M23 12V6m-3 2h5"/>
    <path fill="#fff" stroke-linecap="butt" stroke-linejoin="miter" d="M23 25s4-7 3-10c0 0-1-3-3-3s-3 3-3 3c-2 3 3 10 3 10"/>
    <path fill="#fff" d="M13 37c5 4 14 4 20 0v-7s9-4 6-10c-4-7-14-4-16 4v3-3c-3-8-12-11-16-4-3 6 6 10 6 10v7"/>
    <path d="M13 30c5-3 14-3 20 0m-20 4c5-3 14-3 20 0m-20 3c5-3 14-3 20 0"/>
  </g>
</svg>