<svg xmlns="http://www.w3.org/2000/svg" viewBox="0 0 45 45">
  <g fill="#fff" stroke="#000" stroke-linejoin="round" stroke-width="1.5">
    <path d="M9 26h27l3-12-8 11V11l-5 14-3-15-3 15-6-14v14L7 14l2 12zm0 0c0 2 2 2 3 4v4l-1 2v3h23s2-1 0-3c0 0 1-1-1-2l1-4 2-4H9z"/>
    <path fill="none" d="M12 30h22m-22 4h21"/>
    <circle cx="6" cy="12" r="2"/>
    <circle cx="14" cy="9" r="2"/>
    <circle cx="22.5" cy="8" r="2"/>
    <circle cx="31" cy="9" r="2"/>
    <circle cx="39" cy="12" r="2"/>
  </g>
</svg>